<svg id="Layer_1" data-name="Layer 1" xmlns="http://www.w3.org/2000/svg" viewBox="0 0 707.57113 676.17461">
  <defs>
    <style>
      .cls-1 {
        fill: #767676;
      }
    </style>
  </defs>
  <g>
    <path class="cls-1" d="M577.16149,99.013A335.87219,335.87219,0,0,0,338.10015,0c-44.95,0-81.72344,5.08861-122.06543,21.71069a48.62083,48.62083,0,0,1,13.811,34.77119c33.24187-13.81872,63.45227-18.6498,100.65187-19.20375,167.42158-2.49311,307.51814,131.64548,308.46193,299.083a299.736,299.736,0,0,1-15.10361,95.95266,18.64775,18.64775,0,0,0,5.363,19.81062l0,0a18.66428,18.66428,0,0,0,30.09645-8.01411A339.06537,339.06537,0,0,0,577.16149,99.013Zm-101.376,519.04476a18.69666,18.69666,0,0,0-19.75507-3.18106,299.20535,299.20535,0,0,1-117.93024,24.075c-165.91178,0-300.87718-134.96555-300.87718-300.86449,0-27.59634,1.34228-47.55847,8.33765-72.96a49.7102,49.7102,0,0,1-7.17508.5263,48.53083,48.53083,0,0,1-29.04676-9.58809C1.599,284.65007,0,307.66706,0,338.08715A338.471,338.471,0,0,0,470.75947,649.25331a18.70093,18.70093,0,0,0,5.026-31.19556Z"/>
    <path class="cls-1" d="M531.04855,566.82388a16.21539,16.21539,0,0,1-10.80442-4.10454l-17.54954-15.536,55.92006-63.17009,17.54955,15.5349a16.33272,16.33272,0,0,1,1.40344,23.057l-4.18033-3.70107,4.18033,3.70107-34.26706,38.71074a16.22415,16.22415,0,0,1-11.23789,5.47637Q531.55481,566.82334,531.04855,566.82388Zm-12.59116-20.60015,9.18834,8.13385a5.16685,5.16685,0,0,0,7.29418-.44382L569.207,515.203a5.16677,5.16677,0,0,0-.44383-7.29309l-9.18888-8.13494Z"/>
    <path class="cls-1" d="M557.63813,571.19668a16.21641,16.21641,0,0,1-10.80442-4.10454L533.6248,555.399l36.89729-41.68011L583.731,525.41094a16.334,16.334,0,0,1,1.40344,23.057L569.89016,565.6887a16.22418,16.22418,0,0,1-11.23788,5.47636Q558.14357,571.19614,557.63813,571.19668Zm-8.25052-16.75732,4.84715,4.291a5.16747,5.16747,0,0,0,7.29473-.44382l15.24429-17.22077a5.16633,5.16633,0,0,0-.44437-7.2931l-4.8477-4.2921Z"/>
    <path class="cls-1" d="M138.83112,235.25208l-52.5505-46.51854,75.33759-85.105,52.55051,46.51855Zm-36.7877-47.47816,35.82808,31.71645,60.53441-68.38365-35.82808-31.71644Z"/>
    <path class="cls-1" d="M489.75829,553.53209a48.854,48.854,0,0,1-32.5572-12.36707L159.50433,277.63664l93.5736-105.70513L562.95474,446.24032a32.95306,32.95306,0,0,1,2.832,46.51746l-39.106,44.1762a48.901,48.901,0,0,1-33.86359,16.50542C491.7953,553.50156,490.77352,553.53209,489.75829,553.53209ZM175.26714,276.677l289.335,256.12624a38.05211,38.05211,0,0,0,53.71731-3.27142l39.10659-44.1762a21.78594,21.78594,0,0,0-1.87235-30.75356L254.03755,187.69323Z"/>
    <path class="cls-1" d="M115.25179,327.67523a32.93687,32.93687,0,0,1-24.65508-54.78107l149.41516-168.788a32.9533,32.9533,0,0,1,49.34832,43.68549h-.00054l-149.41516,168.788A32.88331,32.88331,0,0,1,115.25179,327.67523ZM264.69857,104.17271a21.73984,21.73984,0,0,0-16.326,7.33562L98.95738,280.2963a21.78652,21.78652,0,0,0,32.62644,28.88122L280.999,140.38954h-.00055a21.77527,21.77527,0,0,0-16.29986-36.21683Z"/>
    <path class="cls-1" d="M53.36465,228.53258a27.88455,27.88455,0,0,1-20.90221-46.38114L148.55,51.00009a27.91824,27.91824,0,0,1,44.60258,33.25947,27.60546,27.60546,0,0,1-2.79271,3.75014L74.2685,219.15341a27.5121,27.5121,0,0,1-2.82979,2.76217A27.80455,27.80455,0,0,1,53.36465,228.53258ZM169.492,52.75685a16.803,16.803,0,0,0-12.57971,5.64429L40.82474,189.55139a16.73793,16.73793,0,0,0-1.37618,20.42786,16.52872,16.52872,0,0,0,2.80579,3.21363,16.80861,16.80861,0,0,0,21.95561.21155,16.4371,16.4371,0,0,0,1.70387-1.6597L181.99427,80.613A16.75679,16.75679,0,0,0,186.197,69.51853,16.7747,16.7747,0,0,0,176.72728,54.41,16.60045,16.60045,0,0,0,169.492,52.75685Z"/>
    <rect class="cls-1" x="210.56983" y="294.20197" width="69.27902" height="11.16658" transform="translate(-141.79187 284.65629) rotate(-48.47984)"/>
    <rect class="cls-1" x="251.13002" y="330.10693" width="69.27902" height="11.16658" transform="translate(-155.00121 327.12877) rotate(-48.47984)"/>
    <rect class="cls-1" x="291.69021" y="366.01189" width="69.27902" height="11.16658" transform="translate(-168.21055 369.60124) rotate(-48.47984)"/>
    <rect class="cls-1" x="332.2505" y="401.91684" width="69.27938" height="11.16658" transform="translate(-181.4198 412.07393) rotate(-48.47984)"/>
    <rect class="cls-1" x="372.81114" y="437.8218" width="69.27902" height="11.16658" transform="translate(-194.62905 454.54661) rotate(-48.47984)"/>
    <rect class="cls-1" x="413.37133" y="473.72676" width="69.27902" height="11.16658" transform="translate(-207.8384 497.01909) rotate(-48.47984)"/>
    <path class="cls-1" d="M698.28694,671.19322,569.75767,557.41636l7.401-8.36176L705.68852,662.83194a5.58333,5.58333,0,0,1,.48009,7.88116h0A5.58333,5.58333,0,0,1,698.28694,671.19322Z"/>
  </g>
</svg>
